<svg width="119" height="40" viewBox="0 0 119 40" fill="none" xmlns="http://www.w3.org/2000/svg">
<rect width="119" height="40" fill="#2A7AE4"/>
<path d="M17.75 15.06L20.746 23.082L23.728 15.06H25.394L21.488 25H20.004L16.084 15.06H17.75ZM28.7733 25.14C28.0173 25.14 27.3546 24.9673 26.7853 24.622C26.2159 24.2767 25.7726 23.8193 25.4552 23.25C25.1379 22.6713 24.9793 22.0413 24.9793 21.36C24.9793 20.6693 25.1379 20.0347 25.4552 19.456C25.7726 18.8773 26.2159 18.4153 26.7853 18.07C27.3546 17.7247 28.0219 17.552 28.7873 17.552C29.5526 17.552 30.2153 17.7293 30.7753 18.084C31.3353 18.4293 31.7646 18.8867 32.0633 19.456C32.3713 20.0253 32.5253 20.6367 32.5253 21.29C32.5253 21.5233 32.5113 21.71 32.4833 21.85H26.6173C26.6453 22.2793 26.7619 22.6573 26.9673 22.984C27.1819 23.3013 27.4479 23.5533 27.7653 23.74C28.0919 23.9173 28.4466 24.006 28.8293 24.006C29.2399 24.006 29.6273 23.9033 29.9913 23.698C30.3553 23.4927 30.6073 23.222 30.7473 22.886L32.0633 23.264C31.8113 23.8147 31.3913 24.2673 30.8033 24.622C30.2246 24.9673 29.5479 25.14 28.7733 25.14ZM26.5753 20.828H30.9993C30.9619 20.408 30.8406 20.0393 30.6353 19.722C30.4299 19.3953 30.1639 19.1433 29.8373 18.966C29.5199 18.7793 29.1653 18.686 28.7733 18.686C28.3906 18.686 28.0359 18.7793 27.7093 18.966C27.3919 19.1433 27.1306 19.3953 26.9253 19.722C26.7199 20.0393 26.6033 20.408 26.5753 20.828ZM37.8974 19.008C37.3001 19.0267 36.7681 19.1667 36.3014 19.428C35.8441 19.68 35.5174 20.044 35.3214 20.52V25H33.7814V17.678H35.2094V19.316C35.4614 18.812 35.7928 18.4107 36.2034 18.112C36.6141 17.804 37.0481 17.636 37.5054 17.608C37.5894 17.608 37.6641 17.608 37.7294 17.608C37.7948 17.608 37.8508 17.6127 37.8974 17.622V19.008ZM41.7283 19.96C41.7283 19.3533 41.8356 18.756 42.0503 18.168C42.2649 17.58 42.5776 17.048 42.9883 16.572C43.4083 16.096 43.9123 15.718 44.5003 15.438C45.0976 15.1487 45.7789 15.004 46.5443 15.004C47.4403 15.004 48.2149 15.2047 48.8683 15.606C49.5216 16.0073 50.0069 16.53 50.3243 17.174L49.0923 18C48.9056 17.5987 48.6676 17.286 48.3783 17.062C48.0983 16.8287 47.7903 16.6653 47.4543 16.572C47.1276 16.4693 46.8056 16.418 46.4883 16.418C45.9656 16.418 45.5083 16.5253 45.1163 16.74C44.7243 16.9453 44.3929 17.2207 44.1223 17.566C43.8609 17.9113 43.6603 18.2987 43.5203 18.728C43.3896 19.1573 43.3243 19.5867 43.3243 20.016C43.3243 20.66 43.4596 21.262 43.7303 21.822C44.0103 22.3727 44.3883 22.8207 44.8643 23.166C45.3496 23.502 45.9049 23.67 46.5303 23.67C46.8476 23.67 47.1789 23.614 47.5243 23.502C47.8696 23.39 48.1869 23.2173 48.4763 22.984C48.7656 22.7413 48.9989 22.424 49.1763 22.032L50.4783 22.774C50.2729 23.2687 49.9509 23.6887 49.5123 24.034C49.0829 24.3793 48.5976 24.6407 48.0563 24.818C47.5243 24.9953 46.9969 25.084 46.4743 25.084C45.7743 25.084 45.1349 24.9393 44.5563 24.65C43.9776 24.3513 43.4783 23.9593 43.0583 23.474C42.6383 22.9793 42.3116 22.4287 42.0783 21.822C41.8449 21.206 41.7283 20.5853 41.7283 19.96ZM55.0089 25.14C54.2436 25.14 53.5763 24.9673 53.0069 24.622C52.4469 24.2673 52.0129 23.8053 51.7049 23.236C51.3969 22.6573 51.2429 22.0273 51.2429 21.346C51.2429 20.6647 51.3969 20.0393 51.7049 19.47C52.0223 18.8913 52.4609 18.4293 53.0209 18.084C53.5903 17.7293 54.2529 17.552 55.0089 17.552C55.7649 17.552 56.4229 17.7293 56.9829 18.084C57.5523 18.4293 57.9909 18.8913 58.2989 19.47C58.6163 20.0393 58.7749 20.6647 58.7749 21.346C58.7749 22.0273 58.6209 22.6573 58.3129 23.236C58.0049 23.8053 57.5663 24.2673 56.9969 24.622C56.4369 24.9673 55.7743 25.14 55.0089 25.14ZM52.8249 21.36C52.8249 21.8267 52.9229 22.2467 53.1189 22.62C53.3149 22.9933 53.5763 23.2873 53.9029 23.502C54.2296 23.7167 54.5983 23.824 55.0089 23.824C55.4103 23.824 55.7743 23.7167 56.1009 23.502C56.4369 23.278 56.7029 22.9793 56.8989 22.606C57.0949 22.2327 57.1929 21.8127 57.1929 21.346C57.1929 20.8793 57.0949 20.4593 56.8989 20.086C56.7029 19.7127 56.4369 19.4187 56.1009 19.204C55.7743 18.98 55.4103 18.868 55.0089 18.868C54.6076 18.868 54.2389 18.98 53.9029 19.204C53.5763 19.4187 53.3149 19.7173 53.1189 20.1C52.9229 20.4733 52.8249 20.8933 52.8249 21.36ZM66.7068 25H65.1668V20.898C65.1668 20.2073 65.0548 19.708 64.8308 19.4C64.6161 19.0827 64.2941 18.924 63.8648 18.924C63.5661 18.924 63.2675 18.9987 62.9688 19.148C62.6795 19.2973 62.4181 19.5027 62.1848 19.764C61.9515 20.0253 61.7835 20.3193 61.6808 20.646V25H60.1408V17.678H61.5408V19.148C61.8208 18.6627 62.2268 18.2753 62.7588 17.986C63.2908 17.6967 63.8788 17.552 64.5228 17.552C65.1015 17.552 65.5495 17.692 65.8668 17.972C66.1841 18.2427 66.4035 18.602 66.5248 19.05C66.6461 19.498 66.7068 19.9927 66.7068 20.534V25ZM71.0983 25.14C70.4823 25.14 69.899 25.0373 69.3483 24.832C68.7976 24.6267 68.3263 24.328 67.9343 23.936L68.5083 22.9C68.9283 23.2733 69.3483 23.544 69.7683 23.712C70.1883 23.88 70.613 23.964 71.0423 23.964C71.4716 23.964 71.8216 23.8847 72.0923 23.726C72.363 23.558 72.4983 23.3153 72.4983 22.998C72.4983 22.774 72.4283 22.6013 72.2883 22.48C72.1483 22.3587 71.943 22.2607 71.6723 22.186C71.411 22.1113 71.0936 22.018 70.7203 21.906C70.1976 21.7473 69.759 21.584 69.4043 21.416C69.0496 21.2387 68.7836 21.024 68.6063 20.772C68.429 20.52 68.3403 20.198 68.3403 19.806C68.3403 19.0967 68.6063 18.546 69.1383 18.154C69.6703 17.7527 70.3656 17.552 71.2243 17.552C71.7563 17.552 72.2463 17.636 72.6943 17.804C73.1516 17.9627 73.553 18.2147 73.8983 18.56L73.2403 19.582C72.6056 19.0033 71.9056 18.714 71.1403 18.714C70.8043 18.714 70.4916 18.7793 70.2023 18.91C69.9223 19.0407 69.7823 19.2833 69.7823 19.638C69.7823 19.9367 69.9083 20.1513 70.1603 20.282C70.4123 20.4127 70.7856 20.5527 71.2803 20.702C71.8403 20.87 72.321 21.038 72.7223 21.206C73.133 21.3647 73.4456 21.5747 73.6603 21.836C73.8843 22.088 73.9963 22.438 73.9963 22.886C73.9963 23.5953 73.7303 24.1507 73.1983 24.552C72.6663 24.944 71.9663 25.14 71.0983 25.14ZM78.6613 25.14C77.8959 25.14 77.2286 24.9673 76.6593 24.622C76.0993 24.2673 75.6653 23.8053 75.3573 23.236C75.0493 22.6573 74.8953 22.0273 74.8953 21.346C74.8953 20.6647 75.0493 20.0393 75.3573 19.47C75.6746 18.8913 76.1133 18.4293 76.6733 18.084C77.2426 17.7293 77.9053 17.552 78.6613 17.552C79.4173 17.552 80.0753 17.7293 80.6353 18.084C81.2046 18.4293 81.6433 18.8913 81.9513 19.47C82.2686 20.0393 82.4273 20.6647 82.4273 21.346C82.4273 22.0273 82.2733 22.6573 81.9653 23.236C81.6573 23.8053 81.2186 24.2673 80.6493 24.622C80.0893 24.9673 79.4266 25.14 78.6613 25.14ZM76.4773 21.36C76.4773 21.8267 76.5753 22.2467 76.7713 22.62C76.9673 22.9933 77.2286 23.2873 77.5553 23.502C77.8819 23.7167 78.2506 23.824 78.6613 23.824C79.0626 23.824 79.4266 23.7167 79.7533 23.502C80.0893 23.278 80.3553 22.9793 80.5513 22.606C80.7473 22.2327 80.8453 21.8127 80.8453 21.346C80.8453 20.8793 80.7473 20.4593 80.5513 20.086C80.3553 19.7127 80.0893 19.4187 79.7533 19.204C79.4266 18.98 79.0626 18.868 78.6613 18.868C78.2599 18.868 77.8913 18.98 77.5553 19.204C77.2286 19.4187 76.9673 19.7173 76.7713 20.1C76.5753 20.4733 76.4773 20.8933 76.4773 21.36ZM83.8071 14.78H85.3471V22.886C85.3471 23.2593 85.4031 23.4973 85.5151 23.6C85.6271 23.7027 85.7671 23.754 85.9351 23.754C86.1218 23.754 86.2991 23.7353 86.4671 23.698C86.6351 23.6607 86.7751 23.614 86.8871 23.558L87.1111 24.776C86.8871 24.8693 86.6211 24.9487 86.3131 25.014C86.0051 25.0793 85.7298 25.112 85.4871 25.112C84.9645 25.112 84.5538 24.9673 84.2551 24.678C83.9565 24.3793 83.8071 23.9687 83.8071 23.446V14.78ZM91.3221 25.14C90.5661 25.14 89.9034 24.9673 89.3341 24.622C88.7647 24.2767 88.3214 23.8193 88.0041 23.25C87.6867 22.6713 87.5281 22.0413 87.5281 21.36C87.5281 20.6693 87.6867 20.0347 88.0041 19.456C88.3214 18.8773 88.7647 18.4153 89.3341 18.07C89.9034 17.7247 90.5707 17.552 91.3361 17.552C92.1014 17.552 92.7641 17.7293 93.3241 18.084C93.8841 18.4293 94.3134 18.8867 94.6121 19.456C94.9201 20.0253 95.0741 20.6367 95.0741 21.29C95.0741 21.5233 95.0601 21.71 95.0321 21.85H89.1661C89.1941 22.2793 89.3107 22.6573 89.5161 22.984C89.7307 23.3013 89.9967 23.5533 90.3141 23.74C90.6407 23.9173 90.9954 24.006 91.3781 24.006C91.7887 24.006 92.1761 23.9033 92.5401 23.698C92.9041 23.4927 93.1561 23.222 93.2961 22.886L94.6121 23.264C94.3601 23.8147 93.9401 24.2673 93.3521 24.622C92.7734 24.9673 92.0967 25.14 91.3221 25.14ZM89.1241 20.828H93.5481C93.5107 20.408 93.3894 20.0393 93.1841 19.722C92.9787 19.3953 92.7127 19.1433 92.3861 18.966C92.0687 18.7793 91.7141 18.686 91.3221 18.686C90.9394 18.686 90.5847 18.7793 90.2581 18.966C89.9407 19.1433 89.6794 19.3953 89.4741 19.722C89.2687 20.0393 89.1521 20.408 89.1241 20.828ZM98.9343 25.14C98.3183 25.14 97.7349 25.0373 97.1843 24.832C96.6336 24.6267 96.1623 24.328 95.7703 23.936L96.3443 22.9C96.7643 23.2733 97.1843 23.544 97.6043 23.712C98.0243 23.88 98.4489 23.964 98.8783 23.964C99.3076 23.964 99.6576 23.8847 99.9283 23.726C100.199 23.558 100.334 23.3153 100.334 22.998C100.334 22.774 100.264 22.6013 100.124 22.48C99.9843 22.3587 99.7789 22.2607 99.5083 22.186C99.2469 22.1113 98.9296 22.018 98.5563 21.906C98.0336 21.7473 97.5949 21.584 97.2403 21.416C96.8856 21.2387 96.6196 21.024 96.4423 20.772C96.2649 20.52 96.1763 20.198 96.1763 19.806C96.1763 19.0967 96.4423 18.546 96.9743 18.154C97.5063 17.7527 98.2016 17.552 99.0603 17.552C99.5923 17.552 100.082 17.636 100.53 17.804C100.988 17.9627 101.389 18.2147 101.734 18.56L101.076 19.582C100.442 19.0033 99.7416 18.714 98.9763 18.714C98.6403 18.714 98.3276 18.7793 98.0383 18.91C97.7583 19.0407 97.6183 19.2833 97.6183 19.638C97.6183 19.9367 97.7443 20.1513 97.9963 20.282C98.2483 20.4127 98.6216 20.5527 99.1163 20.702C99.6763 20.87 100.157 21.038 100.558 21.206C100.969 21.3647 101.282 21.5747 101.496 21.836C101.72 22.088 101.832 22.438 101.832 22.886C101.832 23.5953 101.566 24.1507 101.034 24.552C100.502 24.944 99.8023 25.14 98.9343 25.14Z" fill="white"/>
</svg>
